<svg version="1.1" viewBox="0.0 0.0 512.0 512.0" fill="none" stroke="none" stroke-linecap="square" stroke-miterlimit="10" xmlns:xlink="http://www.w3.org/1999/xlink" xmlns="http://www.w3.org/2000/svg"><clipPath id="p.0"><path d="m0 0l512.0 0l0 512.0l-512.0 0l0 -512.0z" clip-rule="nonzero"/></clipPath><g clip-path="url(#p.0)"><path fill="#000000" fill-opacity="0.0" d="m0 0l512.0 0l0 512.0l-512.0 0z" fill-rule="evenodd"/><path fill="#ff5a00" d="m-2.5958006 85.33504l0 0c0 -47.12924 38.2058 -85.33504 85.335045 -85.33504l341.3299 0l0 0c22.632263 0 44.337555 8.99063 60.341003 24.994055c16.003418 16.003424 24.99405 37.708725 24.99405 60.34098l0 341.3299c0 47.129242 -38.20581 85.33505 -85.33505 85.33505l-341.3299 0c-47.129246 0 -85.335045 -38.20581 -85.335045 -85.33505z" fill-rule="evenodd"/><path fill="#ffffff" d="m472.0 207.2126l0 0c0 92.34895 -74.86362 167.2126 -167.21259 167.2126c-92.34898 0 -167.21262 -74.86365 -167.21262 -167.2126c0 -92.34897 74.86363 -167.2126 167.21262 -167.2126l0 167.2126z" fill-rule="evenodd"/><path fill="#000000" fill-opacity="0.0" d="m77.7769 429.06876l106.26599 -177.05016l139.28224 125.155624l103.17059 -332.7307" fill-rule="evenodd"/><path stroke="#cccccc" stroke-width="24.0" stroke-linejoin="round" stroke-linecap="butt" d="m77.7769 429.0688l106.26599 -177.05019l139.28224 125.155624l60.523285 -195.19087" fill-rule="evenodd"/><path fill="#cccccc" stroke="#cccccc" stroke-width="24.0" stroke-linecap="butt" d="m421.7116 193.72368l-5.606903 -115.768524l-70.119446 92.28787z" fill-rule="evenodd"/><path fill="#ffffff" d="m61.404198 67.543304l29.921265 0l0 376.9134l-29.921265 0z" fill-rule="evenodd"/><path fill="#ffffff" d="m438.3176 414.53543l0 29.921265l-376.9134 0l0 -29.921265z" fill-rule="evenodd"/></g></svg>